<svg width="84" height="65" viewBox="0 0 84 65" fill="none" xmlns="http://www.w3.org/2000/svg">
<path d="M41.4964 7.0625C32.1013 7.0625 24.3776 11.3406 18.4553 16.8473C12.9075 22.0215 9.07452 28.1641 7.1148 32.5C9.07452 36.8359 12.9075 42.9785 18.4408 48.1527C24.3776 53.6594 32.1013 57.9375 41.4964 57.9375C50.8915 57.9375 58.6151 53.6594 64.5375 48.1527C70.0853 42.9785 73.9183 36.8359 75.878 32.5C73.9183 28.1641 70.0853 22.0215 64.552 16.8473C58.6151 11.3406 50.8915 7.0625 41.4964 7.0625ZM13.7433 11.7742C20.5303 5.44375 29.8533 0.125 41.4964 0.125C53.1395 0.125 62.4625 5.44375 69.2495 11.7742C75.9933 18.0613 80.5035 25.5625 82.6506 30.7223C83.1261 31.8641 83.1261 33.1359 82.6506 34.2777C80.5035 39.4375 75.9933 46.9531 69.2495 53.2258C62.4625 59.5562 53.1395 64.875 41.4964 64.875C29.8533 64.875 20.5303 59.5562 13.7433 53.2258C6.99952 46.9531 2.48928 39.4375 0.356641 34.2777C-0.11888 33.1359 -0.11888 31.8641 0.356641 30.7223C2.48928 25.5625 6.99952 18.0469 13.7433 11.7742ZM41.4964 44.0625C47.8655 44.0625 53.0242 38.8883 53.0242 32.5C53.0242 26.1117 47.8655 20.9375 41.4964 20.9375C41.3955 20.9375 41.3091 20.9375 41.2082 20.9375C41.3955 21.6746 41.4964 22.4551 41.4964 23.25C41.4964 28.352 37.3608 32.5 32.2742 32.5C31.4816 32.5 30.7035 32.3988 29.9686 32.2109C29.9686 32.3121 29.9686 32.3988 29.9686 32.5C29.9686 38.8883 35.1273 44.0625 41.4964 44.0625ZM41.4964 14C46.3882 14 51.0796 15.9491 54.5386 19.4185C57.9976 22.8879 59.9408 27.5935 59.9408 32.5C59.9408 37.4065 57.9976 42.1121 54.5386 45.5815C51.0796 49.0509 46.3882 51 41.4964 51C36.6046 51 31.9132 49.0509 28.4542 45.5815C24.9952 42.1121 23.052 37.4065 23.052 32.5C23.052 27.5935 24.9952 22.8879 28.4542 19.4185C31.9132 15.9491 36.6046 14 41.4964 14Z" fill="black"/>
</svg>
